# xmcd
#
# Track frame offsets:
#	150
#	24712
#	45000
#	60112
#	68887
#	96787
#	115162
#	130875
#	145162
#	164887
#	189037
#	208912
#	223237
#	235050
#
# Disc length: 3337 seconds
# Revision: 0
# Processed by: cddbd v1.5.2PL0 Copyright (c) Steve Scherf et al.
# Submitted via: dBpowerAMP V12.0
#
DISCID=c40d070e
DTITLE=Various Artist - Louisiana Spice: 25 Years of Louisiana Music on Rounder Records, Disc 1 of 2
DYEAR=1986
DGENRE=Blues
TTITLE0=Dirty Dozen Brass Band - Mardis Gras in New Orleans (Go to the Mardi Gras) [Byrd and Terry 1949]
TTITLE1=Marcia Ball - That's Enough of That Stuff [Ball 1985]
TTITLE2=James Booker - Three Keys [Booker 1982]
TTITLE3=Tuts Washington - Tee-Nah-Nah [Washington 1950s]
TTITLE4=Bo Dollis - Shoo-Fly
TTITLE5=Walter “Wolfman” Washington - On the Prowl
TTITLE6=Dalton Reed - Back on Track [Reed 1994]
TTITLE7=Irma Thomas - Hold to God's Unchanging Hand
TTITLE8=Champion Jack Dupree - Hometown New Orleans [Dupree]
TTITLE9=Johnny Adams - Down That Lonely Lonely Road [Black]
TTITLE10=Professor Longhair - Tipitina [Byrd 1953]
TTITLE11=Bo Dollis and Wild Magnolias - Coconut Milk [Levy]
TTITLE12=Eddie Bo - Hard Times [Bocage]
TTITLE13=Chuck Carbo - Meet Me at the Station
EXTD=
EXTT0=
EXTT1=
EXTT2=
EXTT3=
EXTT4=
EXTT5=
EXTT6=
EXTT7=
EXTT8=
EXTT9=
EXTT10=
EXTT11=
EXTT12=
EXTT13=
PLAYORDER=
